<?xml version="1.0" encoding="utf-8"?>
<!-- Generator: Adobe Illustrator 22.0.0, SVG Export Plug-In . SVG Version: 6.00 Build 0)  -->
<svg version="1.1" id="Layer_1" xmlns="http://www.w3.org/2000/svg" xmlns:xlink="http://www.w3.org/1999/xlink" x="0px" y="0px"
	 width="1530px" height="500px" viewBox="0 0 1530 500" style="enable-background:new 0 0 1530 500;" xml:space="preserve">
<style type="text/css">
	.st0{fill:#4869EE;}
	.st1{fill:#FFFFFF;}
</style>
<g>
	<path class="st0" d="M736.2,248.5c-5.5-5.2-5-12.8-4.9-16.2c0.4-7,3.3-11.9,4.9-14.5c6.7-10.7,16.8-15.4,23.6-18.5
		c10.3-4.6,18.9-5.6,26.3-6.5c3.6-0.4,13.9-1.4,27.4,0.2c10.8,1.3,21.6,2.6,32.9,9.3c2.5,1.5,12.7,7.8,17.3,17.5
		c0.3,0.7,0.7,1.5,0.7,1.6c1.2,2.9,2.5,7.6,3.6,18.1c0.7,7.1,1.5,18.5,0.5,43.1c-0.1,2.2-0.6,14,0.3,28.5c0,0.4,0.6,8.9,5.1,18.1
		c3,6.3,5,6.9,6.1,6.9c2.3,0,3.9-2.9,4.5-4c0.3,1.3,0.5,3.4,0.1,5.7c-1.7,10.7-14.2,15.4-15,15.7c-10.6,3.9-20.1-1.1-22.1-2.1
		c-11.3-5.9-14.7-17.1-15.3-19.3c-3.3,2.9-7.9,6.5-13.8,10c-11.8,7.1-22,9.7-24.1,10.2c-6.9,1.8-17.1,4.3-29.9,2
		c-6.1-1.1-20.8-3.8-31.1-16.8c-7.7-9.7-9-20.1-9.5-24.2c-0.5-4.9-1.6-16.3,5.2-27.7c1.9-3.2,6.8-11.4,16.8-15
		c0.9-0.3,18.1-6.4,26.5,3.6c4.6,5.5,4,12.7,3.7,14.9c-0.1-0.5-0.8-3.4-3.5-4.8c-2-1-4.2-0.7-5.5-0.1c-5.6,2.4-5.3,14.3-5.2,16.8
		c0.2,5.9,0.4,15.5,7.9,22.2c7.2,6.5,16.3,6,22.4,5.7c4-0.2,14.9-1.3,24.5-9.6c2-1.7,7.6-6.6,10.6-14.9c0.7-1.9,1.4-4.4,2.1-13.4
		c0.7-9.2,0.9-18.7,0.4-35.3c-0.1-3-0.2-5.7-0.3-8c-0.1-3.2-0.8-6.4-2.1-9.4c-0.9-2-2.1-4.1-3.9-6.2c-5.5-6.7-12.3-8.8-15.2-9.7
		c-2.4-0.7-9.2-2.5-17.4-0.5c-5.2,1.2-8.8,3.5-11.7,5.3c-3,1.9-7.4,4.6-11.1,9.7c-1.6,2.2-1.7,3-3.9,5.6c-1.8,2.2-3.7,4.6-6.8,6.7
		c-2.1,1.4-5.7,3.8-10.7,3.6C745.8,252.9,740.5,252.6,736.2,248.5z"/>
	<path class="st0" d="M906.4,205.2c0.8-1.9,2.6-5.6,6.5-8.4c3.3-2.3,6.4-2.8,9.8-3.3c1.5-0.2,7-1,14.2,0.7c4.8,1.1,7.6,1.8,10.2,4.3
		c3.8,3.6,4.7,8.6,5.2,11.6c0.6,3.6,0.4,6.7,0.1,8.7c2.8-3.7,7.2-8.7,13.7-13.3c6.8-4.8,12.9-7.1,15.6-8c12.9-4.4,24.1-3.2,29.4-2.3
		c6.1,1,14,2.4,21.7,8.5c6.5,5.2,9.9,11.4,11.6,15c5.1-6.6,10.4-11,14.2-13.8c3.9-2.9,8.6-6.2,15.7-8.5c7.2-2.3,13-2.3,18.1-2.3
		c4.3,0,10.2,0.1,17.6,2.3c4.5,1.3,10.5,3.2,16.6,8.3c1.3,1.1,6.9,5.9,10.9,14.5c4.8,10.3,4.4,19.8,4.3,23.4
		c-0.5,16.5-0.2,49.5,0,93.6c-0.1,1.9-0.5,7-4.1,11.8c-0.6,0.8-3.1,3.9-7.5,6c-8.1,3.9-15.9,1.2-16.9,0.8c-1.3-0.5-8.1-3-11.3-9.6
		c-1.3-2.8-1.6-5.4-2-10.8c-0.3-4-0.3-7.4-0.1-9.8c0.5,0,1.1,0,1.6,0c-0.2-27.3-0.4-54.7-0.6-82c-0.3-2-1.1-6.8-4.9-11.3
		c-3.4-4-7.3-5.7-8.1-6c-8.9-3.6-17.8,1-20.9,2.7c-1.4,0.7-11,5.9-15,17c-1.7,4.8-1.7,8.9-1.7,10.4c0,12.2-0.4,37-0.8,69.9
		c0.6,0,1.3,0,1.9,0c0.3,2.7,0.4,6.7-0.6,11.6c-0.8,4.3-1.6,8.2-4.7,11.8c-3.8,4.6-8.9,5.8-11.6,6.5c-3.1,0.8-9.6,2.5-16.2-1.1
		c-6.1-3.3-8.5-9.1-9.7-12.1c-2-5-2.1-9.6-2.1-11.6c0-2.3,0.2-4.3,0.4-5.7c0.6,0,1.2,0,1.7,0c-0.1-26.7-0.3-53.3-0.4-80
		c0-2-0.3-7.7-4.3-12.9c-3.5-4.5-7.8-6.3-9.5-6.9c-8.7-3.4-19.2-1-26.4,4.8c-10.1,8.1-10.6,20.2-10.6,22.1
		c-0.5,9.6-0.9,19.4-1.2,29.3c-0.5,14.7-0.7,29-0.8,43.1c0.9,0,1.9,0,2.8,0c0.4,2.8,0.7,7.5-0.7,12.9c-1.1,4.2-2.5,10-8,14.2
		c-6.5,5-14,4.2-15.8,4c-2.3-0.3-8.7-1.1-13.6-6.7c-4.5-5.1-5-11-5.1-12.8c0-41.4-0.1-82.8-0.1-124.2c0.2-1.3,0.3-3.8-1.1-6.3
		c-0.5-0.9-1.2-2.1-2.5-2.5C909.9,202.3,907.9,203.2,906.4,205.2z"/>
	<path class="st0" d="M1167,203.8c0.2-1.6,0.8-4.1,2.7-6.3c1.3-1.5,3.3-3,9.3-4.3c5.8-1.2,11.7-2.5,19.2-0.3
		c3.2,0.9,8.9,2.6,12.9,7.6c4.4,5.5,4.4,12.1,4.4,15.3c0,13.8,0.4,41.4,0.3,77.9c-0.1,3.4,0.1,9.1,2.6,15.3c0.9,2.2,2.2,5.5,5,8.6
		c6.9,7.7,17,8.2,18.9,8.3c12.4,0.7,21-7,23.6-9.2c2.1-1.8,8.2-7.3,10.9-16.6c1-3.4,1.3-6.4,1.3-8.5c0.4-8.2,0.6-16.5,0.8-25
		c0.3-17,0.3-33.5-0.1-49.4c-0.2-2.2-0.1-5.9,1.4-10.2c0.8-2.2,2.3-6.4,6.4-9.6c5.8-4.6,12.7-3.9,14.9-3.6c1.7,0.2,8.8,1.4,13.4,7.9
		c2.8,4,3.3,8.4,3.4,10.6c0.6,10.5,0.7,57.5,0.1,121.5c-0.1,1.8,1.2,3.3,2.8,3.7c1.8,0.4,3.7-0.8,4.2-2.7c0,2.1-0.2,6.2-2.6,10.4
		c-3.8,6.8-10.3,9.1-12.6,9.9c-2.3,0.8-12,4.3-20.2-1.2c-6.3-4.2-7.9-11.2-8.6-13.9c-1.1-4.6-0.7-8.5-0.3-10.9
		c-2.4,3-5.8,6.7-10.2,10.4c-1.4,1.2-6,5-11.5,8.1c-15.9,9-32.6,8.5-33.9,8.5c-6.2-0.3-17.3-0.8-28.4-8.4
		c-10.8-7.4-15.6-17.2-17.2-20.9c-3.8-9-3.9-16.9-3.9-20.4c-0.1-19.4-0.3-53.8,0-98.1c0-1.2-0.6-3.1-1.8-4.9c-0.6-1-1.5-2.2-2.8-2.4
		C1169.8,200.7,1168.1,201.8,1167,203.8z"/>
	<path class="st0" d="M1460.2,324.2c-2.7,4.3-7.8,11.4-16.6,17.2c-14.4,9.6-28.9,9.5-33.9,9.4c-4.1-0.1-22.9-0.9-39.3-15
		c-14-12-18.1-26.8-21.6-39.1c-6.9-24.7-2.5-44.9-1-50.9c2.5-10,5.6-22.5,16.6-33.9c12.9-13.4,28.3-16.8,33.1-17.8
		c5.2-1.1,23.3-4.5,42.3,5.6c13,6.9,20.2,16.7,23.4,21.8c-0.6-5.1-0.2-9.2,0.3-12c0.4-2.6,0.8-4.7,2.1-7.3c0.7-1.5,2.9-5.8,7.5-7.9
		c2.7-1.3,5.2-1.2,6.5-1.2c6.1,0.1,13.9-0.1,24-0.4c-0.9,0.9-2.8,2.8-3.6,5.9c-0.3,1.3-0.4,2.4-0.3,3.3c0.1,34.6,0.1,69.2,0.2,103.8
		c1.3,23.1,0,40.9-1.5,52.7c-0.9,7.5-2.2,15.5-7,24.2c-5.5,9.9-12.4,15.5-14.2,16.8c-6.7,5.1-12.8,7.1-18.8,9
		c-8.9,2.9-15.9,3.6-22.8,4.2c-7.9,0.7-18.3,1.7-31.7-0.2c-9.8-1.4-22.3-3.2-35.1-11.4c-8.7-5.6-12-10.5-13.1-12.3
		c-3.6-5.8-7.5-16.2-3.4-22.6c2-3.2,5.2-5.2,5.2-5.2c2-1.3,3.8-1.8,5.2-2.2c1.8-0.5,3.5-0.8,5.4-1c5.7-0.5,11.8-0.1,14.5,0.2
		c-1.5,2-1.9,3.7-2,4.8c-0.4,4.6,3.5,8.4,7.4,12.1c2.6,2.5,4.9,4,5.9,4.7c4.5,2.9,8.5,4.1,11.3,5c7.8,2.3,14.3,2.4,16.4,2.3
		c7.6-0.1,20.1-0.3,28.8-9.1c7-7.1,8.6-16.9,9.3-21c0.5-3.2,0.9-8,1-12.2c0.1-2.6,0-5.1-0.1-10.1
		C1460.4,330.3,1460.3,326.7,1460.2,324.2z M1460.2,284.8v-24.4c0-20.6-16.7-37.3-37.3-37.3h0c-20.6,0-37.3,16.7-37.3,37.3v24.4
		c0,20.6,16.7,37.3,37.3,37.3h0C1443.5,322.2,1460.2,305.4,1460.2,284.8z"/>
	<path class="st0" d="M640.6,355.7c-0.5,0.1-1,0.1-1.4,0.2c-0.5,0.1-1,0.1-1.5,0.1C638.6,355.9,639.6,355.8,640.6,355.7z"/>
	<path class="st0" d="M687.6,188.4c-0.1-0.3-0.1-0.6-0.1-0.9c0,0.1,0.1,0.1,0.1,0.1C687.6,187.9,687.6,188.1,687.6,188.4z"/>
	<path class="st0" d="M547,311.6c0.1,0.3,0.1,0.6,0.1,0.9c0-0.1-0.1-0.1-0.1-0.1C547,312.1,547,311.8,547,311.6z"/>
	<path class="st0" d="M699.9,292.3c0-0.8-0.1-1.7-0.2-2.4c-0.3-3.1-0.8-6.1-1.6-8.9c-2.9-10.5-8.8-19.4-17.6-26.3
		c-5.6-4.4-13.6-8.2-22.6-12.3c-2.6-1.2-5.4-2.3-8.1-3.5c-3.4-1.3-6.8-2.7-10.3-4.2l-9.7-3.9c-5.8-2.4-11.9-5-17.9-7.7
		c-6.6-2.8-13.2-5.7-19.3-8.2c-1.2-0.5-2.2-1-3.2-1.7c-0.1,0-0.2-0.1-0.3-0.1c-3.2-1.6-5.7-3.7-7.5-6.1c-0.2-0.3-0.4-0.7-0.6-1
		c-0.3-0.4-0.4-0.8-0.6-1.2c-2-4.1-2.1-8.4-2.1-9.1h0c0.3-3.3,1.5-6.5,3.4-9.1c0.1-0.1,0.2-0.3,0.3-0.4c0.3-0.4,0.6-0.8,1-1.1
		c0.5-0.6,1-1.1,1.5-1.7c0.1-0.1,0.1-0.1,0.1-0.1c10-10,24.3-10.2,33.1-10.3c0.8,0,2,0,3.8,0.1c3.6,0.2,9,0.8,15.1,2.6
		c3.2,1,7.8,2.4,13,5.8c1.2,0.8,3.9,2.6,6.9,5.4c4.5,4.3,8.9,8.6,8.6,14c-0.1,1.3-0.6,3.3-2.3,5.6c3.1,0.3,10.1,0.9,16.7,0.3
		c2.2-0.2,4.1-0.5,6.2-1.2h0.1c0.3-0.1,0.6-0.2,1-0.3c1.4-0.4,3.1-1.1,4.9-2.2c0,0,3.6-2.3,6-5.9c4.7-7.5,0.2-19.4-4-26.1
		c-1.3-2-5.1-7.7-15.2-14.2c-14.8-9.5-29.2-11.6-40.5-13.1c-7.5-1-14.1-1.3-20-1.3h-1.3c-5.7,0-12.3,0.3-19.2,1.2
		c-1.1,0.1-2.2,0.3-3.3,0.5c-0.5,0.1-1,0.1-1.5,0.2c-0.1,0.1-0.1,0.1-0.3,0.1c-0.1,0-0.2,0-0.3,0.1c-1.7,0.2-3.3,0.4-5,0.8
		c-0.4,0.1-0.9,0.1-1.3,0.3c-5.9,1.3-12.7,3.4-19.4,6.8c-0.4,0.1-0.8,0.3-1.1,0.6c-1.6,0.8-3.1,1.7-4.6,2.7
		c-1.3,0.8-2.7,1.4-3.9,2.3c-9.5,6.3-15,14.4-18.1,22.4c0,0,0,0,0,0.1c-2.4,6.2-3.4,12.4-3.6,17.6c0,0.9,0,1.7,0,2.6v1.9
		c0,0.8,0,1.7,0.1,2.5c0.1,0.8,0.1,1.6,0.2,2.4c0.3,3.1,0.8,6.1,1.6,8.9c2.9,10.5,8.8,19.4,17.6,26.3c5.6,4.4,13.6,8.2,22.6,12.3
		c5.9,2.6,12.1,5,18.4,7.6l9.7,3.9c5.8,2.4,11.9,5,17.9,7.7c3.9,1.7,7.7,3.3,11.5,4.9c0,0,0,0,0.1,0c2.6,1.1,5.2,2.2,7.7,3.3
		c1.2,0.5,2.2,1,3.2,1.7c0.1,0,0.2,0.1,0.3,0.1c5.9,3.5,9.7,8.8,10.8,14.6c0.3,1.3,0.3,2.6,0.3,3.8c0,0.2,0,0.4-0.1,0.6v0.1
		c-0.2,3.6-1.4,7-3.5,10c-0.1,0.1-0.2,0.3-0.3,0.4c-0.3,0.4-0.6,0.8-1,1.1c-0.5,0.6-1,1.2-1.5,1.7c-0.1,0.1-0.1,0.1-0.1,0.1
		c-10,10-24.3,10.2-33.1,10.3c-0.8,0-2,0-3.8-0.1c-3.6-0.2-9-0.8-15.1-2.6c-3.2-1-7.8-2.4-13-5.8c-1.2-0.8-3.9-2.6-6.9-5.4
		c-4.5-4.3-8.9-8.6-8.6-14c0.1-1.3,0.6-3.3,2.3-5.6c-3.1-0.3-10.1-0.9-16.7-0.3c-2.2,0.2-4.1,0.5-6.2,1.1H549
		c-0.3,0.1-0.6,0.2-1,0.3c-1.4,0.4-3.1,1.1-4.9,2.2c0,0-3.6,2.3-6,5.9c-4.7,7.5-0.2,19.4,4,26.1c1.3,2,5.1,7.7,15.2,14.2
		c14.8,9.5,29.2,11.6,40.5,13.1c7.5,1,14.1,1.3,20,1.3c4.7-0.1,8.8-0.4,12.6-0.7c0.4,0,0.7,0,1.1-0.1c1-0.1,2-0.2,2.9-0.3
		c1.4-0.1,2.9-0.3,4.3-0.4c1-0.1,1.9-0.2,2.9-0.3c0.6-0.1,1.3-0.2,2-0.3c1.7-0.2,3.3-0.4,5-0.8c0.4-0.1,0.9-0.1,1.3-0.3
		c5.9-1.3,12.7-3.4,19.4-6.8c0.4-0.2,0.8-0.4,1.2-0.6c11-5.8,21.4-15.1,26.7-30c0,0,0,0,0-0.1c2.4-6.2,3.4-12.4,3.6-17.6v-1.9
		c0-0.9,0-1.7,0-2.6C700,294,700,293.1,699.9,292.3z"/>
</g>
<g>
	<circle class="st0" cx="227.9" cy="250" r="208.4"/>
	<circle class="st1" cx="227.4" cy="114.9" r="34"/>
	<path class="st1" d="M309.9,124.7l-96.8,42.6c0,0-41.5,15.7-54.1,29.6c-12.7,13.8-17.7,46.5-10.4,63.4s11.1,24.6,44.9,35.7
		c33.8,11.1,36.1,12.3,36.1,12.3s-47.2,19.6-59.1,27.3c-11.9,7.7-24,15-25.3,51.8s0,31.5,0,31.5l82.5-36.1c0,0,56.8-21.5,67.2-34.2
		c0,0,16.9-11.1,15-51.5c-1.9-40.3-34.9-45.7-34.9-45.7l-47.6-14.2c0,0,38.4-16.9,50.3-23.8c11.9-6.9,29.9-18.8,32.4-44.5
		S309.9,124.7,309.9,124.7z"/>
</g>
</svg>
