<?xml version="1.0" encoding="utf-8"?>
<!-- Generator: Adobe Illustrator 22.0.0, SVG Export Plug-In . SVG Version: 6.00 Build 0)  -->
<svg version="1.1" id="Layer_1" xmlns="http://www.w3.org/2000/svg" xmlns:xlink="http://www.w3.org/1999/xlink" x="0px" y="0px"
	 viewBox="0 0 512 256" style="enable-background:new 0 0 512 256;" xml:space="preserve">
<style type="text/css">
	.st0{fill:#4869EE;}
	.st1{fill:#FFFFFF;}
</style>
<g>
	<circle class="st0" cx="86.3" cy="128" r="72"/>
	<circle class="st1" cx="86.2" cy="81.3" r="11.8"/>
	<path class="st1" d="M114.7,84.7L81.2,99.4c0,0-14.3,5.4-18.7,10.2s-6.1,16.1-3.6,21.9c2.5,5.8,3.8,8.5,15.5,12.3
		s12.5,4.2,12.5,4.2s-16.3,6.8-20.4,9.4c-4.1,2.7-8.3,5.2-8.7,17.9c-0.4,12.7,0,10.9,0,10.9l28.5-12.5c0,0,19.6-7.4,23.2-11.8
		c0,0,5.8-3.8,5.2-17.8c-0.7-13.9-12.1-15.8-12.1-15.8l-16.4-4.9c0,0,13.3-5.8,17.4-8.2c4.1-2.4,10.3-6.5,11.2-15.4
		C115.6,91.1,114.7,84.7,114.7,84.7z"/>
</g>
<g>
	<path class="st0" d="M237.4,118.4c-1.8-1.7-1.6-4.2-1.6-5.3c0.1-2.3,1.1-3.9,1.6-4.7c2.2-3.5,5.5-5,7.7-6c3.3-1.5,6.1-1.8,8.6-2.1
		c1.2-0.1,4.5-0.5,8.9,0.1c3.5,0.4,7,0.8,10.7,3c0.8,0.5,4.1,2.5,5.6,5.7c0.1,0.2,0.2,0.5,0.2,0.5c0.4,0.9,0.8,2.5,1.2,5.9
		c0.2,2.3,0.5,6,0.2,14c0,0.7-0.2,4.6,0.1,9.3c0,0.1,0.2,2.9,1.6,5.9c1,2,1.6,2.3,2,2.3c0.7,0,1.3-0.9,1.5-1.3
		c0.1,0.4,0.2,1.1,0,1.9c-0.6,3.5-4.6,5-4.9,5.1c-3.5,1.3-6.6-0.4-7.2-0.7c-3.7-1.9-4.8-5.6-5-6.3c-1.1,0.9-2.6,2.1-4.5,3.2
		c-3.9,2.3-7.2,3.2-7.8,3.3c-2.2,0.6-5.6,1.4-9.7,0.6c-2-0.4-6.8-1.2-10.1-5.5c-2.5-3.2-2.9-6.5-3.1-7.9c-0.2-1.6-0.5-5.3,1.7-9
		c0.6-1.1,2.2-3.7,5.5-4.9c0.3-0.1,5.9-2.1,8.6,1.2c1.5,1.8,1.3,4.1,1.2,4.8c0-0.2-0.3-1.1-1.1-1.6c-0.7-0.3-1.4-0.2-1.8,0
		c-1.8,0.8-1.7,4.6-1.7,5.5c0.1,1.9,0.1,5,2.6,7.2c2.3,2.1,5.3,2,7.3,1.9c1.3-0.1,4.8-0.4,8-3.1c0.7-0.6,2.5-2.2,3.5-4.8
		c0.2-0.6,0.5-1.4,0.7-4.4c0.2-3,0.3-6.1,0.1-11.5c0-1-0.1-1.9-0.1-2.6c0-1.1-0.3-2.1-0.7-3.1c-0.3-0.6-0.7-1.3-1.3-2
		c-1.8-2.2-4-2.9-4.9-3.2c-0.8-0.2-3-0.8-5.7-0.2c-1.7,0.4-2.9,1.1-3.8,1.7c-1,0.6-2.4,1.5-3.6,3.2c-0.5,0.7-0.6,1-1.3,1.8
		c-0.6,0.7-1.2,1.5-2.2,2.2c-0.7,0.5-1.9,1.2-3.5,1.2C240.5,119.8,238.8,119.8,237.4,118.4z"/>
	<path class="st0" d="M292.8,104.3c0.2-0.6,0.8-1.8,2.1-2.7c1.1-0.7,2.1-0.9,3.2-1.1c0.5-0.1,2.3-0.3,4.6,0.2
		c1.6,0.4,2.5,0.6,3.3,1.4c1.2,1.2,1.5,2.8,1.7,3.8c0.2,1.2,0.1,2.2,0,2.8c0.9-1.2,2.3-2.8,4.5-4.3c2.2-1.6,4.2-2.3,5.1-2.6
		c4.2-1.4,7.8-1,9.6-0.7c2,0.3,4.5,0.8,7.1,2.8c2.1,1.7,3.2,3.7,3.8,4.9c1.7-2.1,3.4-3.6,4.6-4.5c1.3-0.9,2.8-2,5.1-2.8
		c2.3-0.8,4.2-0.7,5.9-0.7c1.4,0,3.3,0,5.7,0.7c1.5,0.4,3.4,1,5.4,2.7c0.4,0.4,2.3,1.9,3.6,4.7c1.5,3.3,1.4,6.4,1.4,7.6
		c-0.2,5.4-0.1,16.1,0,30.4c0,0.6-0.1,2.3-1.3,3.9c-0.2,0.3-1,1.3-2.4,1.9c-2.6,1.3-5.2,0.4-5.5,0.3c-0.4-0.2-2.6-1-3.7-3.1
		c-0.4-0.9-0.5-1.8-0.6-3.5c-0.1-1.3-0.1-2.4,0-3.2c0.2,0,0.4,0,0.5,0c-0.1-8.9-0.1-17.8-0.2-26.7c-0.1-0.7-0.4-2.2-1.6-3.7
		c-1.1-1.3-2.4-1.8-2.6-1.9c-2.9-1.2-5.8,0.3-6.8,0.9c-0.4,0.2-3.6,1.9-4.9,5.5c-0.6,1.6-0.6,2.9-0.6,3.4c0,4-0.1,12-0.3,22.7
		c0.2,0,0.4,0,0.6,0c0.1,0.9,0.1,2.2-0.2,3.8c-0.3,1.4-0.5,2.7-1.5,3.9c-1.3,1.5-2.9,1.9-3.8,2.1c-1,0.3-3.1,0.8-5.3-0.3
		c-2-1.1-2.8-3-3.2-3.9c-0.7-1.6-0.7-3.1-0.7-3.8c0-0.8,0.1-1.4,0.1-1.9c0.2,0,0.4,0,0.6,0c0-8.7-0.1-17.4-0.1-26
		c0-0.6-0.1-2.5-1.4-4.2c-1.1-1.5-2.5-2-3.1-2.3c-2.8-1.1-6.2-0.3-8.6,1.6c-3.3,2.6-3.4,6.6-3.5,7.2c-0.2,3.1-0.3,6.3-0.4,9.5
		c-0.2,4.8-0.2,9.4-0.3,14c0.3,0,0.6,0,0.9,0c0.1,0.9,0.2,2.4-0.2,4.2c-0.3,1.4-0.8,3.3-2.6,4.6c-2.1,1.6-4.6,1.4-5.2,1.3
		c-0.7-0.1-2.8-0.4-4.4-2.2c-1.5-1.7-1.6-3.6-1.6-4.2c0-13.5,0-26.9,0-40.4c0.1-0.4,0.1-1.2-0.3-2c-0.2-0.3-0.4-0.7-0.8-0.8
		C293.9,103.4,293.3,103.7,292.8,104.3z"/>
	<path class="st0" d="M377.6,103.9c0.1-0.5,0.3-1.3,0.9-2c0.4-0.5,1.1-1,3-1.4c1.9-0.4,3.8-0.8,6.2-0.1c1,0.3,2.9,0.8,4.2,2.5
		c1.4,1.8,1.4,3.9,1.4,5c0,4.5,0.1,13.5,0.1,25.3c0,1.1,0,2.9,0.8,5c0.3,0.7,0.7,1.8,1.6,2.8c2.2,2.5,5.5,2.7,6.1,2.7
		c4,0.2,6.8-2.3,7.7-3c0.7-0.6,2.7-2.4,3.5-5.4c0.3-1.1,0.4-2.1,0.4-2.8c0.1-2.7,0.2-5.4,0.3-8.1c0.1-5.5,0.1-10.9,0-16.1
		c-0.1-0.7,0-1.9,0.5-3.3c0.3-0.7,0.7-2.1,2.1-3.1c1.9-1.5,4.1-1.3,4.8-1.2c0.6,0.1,2.9,0.5,4.4,2.6c0.9,1.3,1.1,2.7,1.1,3.4
		c0.2,3.4,0.2,18.7,0,39.5c0,0.6,0.4,1.1,0.9,1.2c0.6,0.1,1.2-0.3,1.4-0.9c0,0.7-0.1,2-0.8,3.4c-1.2,2.2-3.3,2.9-4.1,3.2
		c-0.7,0.3-3.9,1.4-6.6-0.4c-2-1.4-2.6-3.6-2.8-4.5c-0.4-1.5-0.2-2.8-0.1-3.5c-0.8,1-1.9,2.2-3.3,3.4c-0.5,0.4-1.9,1.6-3.7,2.6
		c-5.2,2.9-10.6,2.8-11,2.8c-2-0.1-5.6-0.3-9.2-2.7c-3.5-2.4-5.1-5.6-5.6-6.8c-1.3-2.9-1.3-5.5-1.3-6.6c0-6.3-0.1-17.5,0-31.9
		c0-0.4-0.2-1-0.6-1.6c-0.2-0.3-0.5-0.7-0.9-0.8C378.5,102.9,377.9,103.2,377.6,103.9z"/>
	<path class="st0" d="M472.9,143.1c-0.9,1.4-2.6,3.7-5.4,5.6c-4.7,3.1-9.4,3.1-11,3.1c-1.3,0-7.5-0.3-12.8-4.9
		c-4.6-3.9-5.9-8.7-7-12.7c-2.2-8-0.8-14.6-0.3-16.6c0.8-3.3,1.8-7.3,5.4-11c4.2-4.4,9.2-5.5,10.8-5.8c1.7-0.3,7.6-1.5,13.8,1.8
		c4.2,2.2,6.6,5.4,7.6,7.1c-0.2-1.7-0.1-3,0.1-3.9c0.1-0.8,0.3-1.5,0.7-2.4c0.2-0.5,0.9-1.9,2.4-2.6c0.9-0.4,1.7-0.4,2.1-0.4
		c2,0,4.5,0,7.8-0.1c-0.3,0.3-0.9,0.9-1.2,1.9c-0.1,0.4-0.1,0.8-0.1,1.1c0,11.3,0,22.5,0.1,33.8c0.4,7.5,0,13.3-0.5,17.1
		c-0.3,2.4-0.7,5-2.3,7.9c-1.8,3.2-4,5-4.6,5.5c-2.2,1.6-4.2,2.3-6.1,2.9c-2.9,0.9-5.2,1.2-7.4,1.4c-2.6,0.2-5.9,0.5-10.3-0.1
		c-3.2-0.4-7.3-1-11.4-3.7c-2.8-1.8-3.9-3.4-4.3-4c-1.2-1.9-2.4-5.3-1.1-7.4c0.7-1,1.7-1.7,1.7-1.7c0.6-0.4,1.2-0.6,1.7-0.7
		c0.6-0.2,1.1-0.3,1.8-0.3c1.9-0.2,3.8,0,4.7,0.1c-0.5,0.7-0.6,1.2-0.6,1.6c-0.1,1.5,1.1,2.7,2.4,3.9c0.8,0.8,1.6,1.3,1.9,1.5
		c1.5,1,2.8,1.3,3.7,1.6c2.5,0.8,4.7,0.8,5.3,0.8c2.5,0,6.5-0.1,9.4-2.9c2.3-2.3,2.8-5.5,3-6.8c0.2-1.1,0.3-2.6,0.3-4
		c0-0.9,0-1.7,0-3.3C473,145,473,143.9,472.9,143.1z M473,130.2v-7.9c0-6.7-5.4-12.1-12.1-12.1h0c-6.7,0-12.1,5.4-12.1,12.1v7.9
		c0,6.7,5.4,12.1,12.1,12.1h0C467.5,142.4,473,136.9,473,130.2z"/>
	<path class="st0" d="M206.3,153.3c-0.2,0-0.3,0-0.5,0.1c-0.2,0-0.3,0-0.5,0C205.7,153.4,206,153.3,206.3,153.3z"/>
	<path class="st0" d="M221.6,98.9c0-0.1,0-0.2,0-0.3c0,0,0,0,0,0C221.6,98.7,221.6,98.8,221.6,98.9z"/>
	<path d="M175.8,138.9c0,0.1,0,0.2,0,0.3c0,0,0,0,0,0C175.8,139.1,175.8,139,175.8,138.9z"/>
	<path class="st0" d="M225.6,132.7c0-0.3,0-0.5-0.1-0.8c-0.1-1-0.2-2-0.5-2.9c-0.9-3.4-2.9-6.3-5.7-8.5c-1.8-1.4-4.4-2.7-7.4-4
		c-0.9-0.4-1.7-0.7-2.6-1.1c-1.1-0.4-2.2-0.9-3.3-1.4l-3.2-1.3c-1.9-0.8-3.9-1.6-5.8-2.5c-2.2-0.9-4.3-1.8-6.3-2.7
		c-0.4-0.2-0.7-0.3-1-0.5c0,0-0.1,0-0.1,0c-1-0.5-1.9-1.2-2.5-2c-0.1-0.1-0.1-0.2-0.2-0.3c-0.1-0.1-0.1-0.3-0.2-0.4
		c-0.6-1.3-0.7-2.7-0.7-2.9h0c0.1-1.1,0.5-2.1,1.1-3c0,0,0.1-0.1,0.1-0.1c0.1-0.1,0.2-0.2,0.3-0.4c0.2-0.2,0.3-0.4,0.5-0.5
		c0,0,0,0,0,0c3.3-3.2,7.9-3.3,10.8-3.3c0.2,0,0.7,0,1.2,0c1.2,0.1,2.9,0.2,4.9,0.9c1,0.3,2.5,0.8,4.2,1.9c0.4,0.2,1.3,0.8,2.2,1.8
		c1.5,1.4,2.9,2.8,2.8,4.6c0,0.4-0.2,1.1-0.7,1.8c1,0.1,3.3,0.3,5.4,0.1c0.7-0.1,1.3-0.2,2-0.4h0c0.1,0,0.2-0.1,0.3-0.1
		c0.5-0.1,1-0.4,1.6-0.7c0,0,1.2-0.7,2-1.9c1.5-2.4,0.1-6.3-1.3-8.5c-0.4-0.7-1.7-2.5-4.9-4.6c-4.8-3.1-9.5-3.8-13.2-4.3
		c-2.4-0.3-4.6-0.4-6.5-0.4h-0.4c-1.9,0-4,0.1-6.3,0.4c-0.4,0-0.7,0.1-1.1,0.2c-0.2,0-0.3,0-0.5,0.1c0,0,0,0-0.1,0c0,0-0.1,0-0.1,0
		c-0.5,0.1-1.1,0.1-1.6,0.3c-0.1,0-0.3,0-0.4,0.1c-1.9,0.4-4.1,1.1-6.3,2.2c-0.1,0-0.2,0.1-0.4,0.2c-0.5,0.3-1,0.6-1.5,0.9
		c-0.4,0.3-0.9,0.5-1.3,0.7c-3.1,2.1-4.9,4.7-5.9,7.3c0,0,0,0,0,0c-0.8,2-1.1,4-1.2,5.7c0,0.3,0,0.6,0,0.8v0.6c0,0.3,0,0.5,0,0.8
		c0,0.3,0,0.5,0.1,0.8c0.1,1,0.2,2,0.5,2.9c0.9,3.4,2.9,6.3,5.7,8.5c1.8,1.4,4.4,2.7,7.4,4c1.9,0.8,3.9,1.6,6,2.5l3.2,1.3
		c1.9,0.8,3.9,1.6,5.8,2.5c1.3,0.5,2.5,1.1,3.7,1.6c0,0,0,0,0,0c0.9,0.4,1.7,0.7,2.5,1.1c0.4,0.2,0.7,0.3,1,0.5c0,0,0.1,0,0.1,0
		c1.9,1.1,3.2,2.8,3.5,4.7c0.1,0.4,0.1,0.8,0.1,1.2c0,0.1,0,0.1,0,0.2v0c-0.1,1.2-0.5,2.3-1.1,3.2c0,0-0.1,0.1-0.1,0.1
		c-0.1,0.1-0.2,0.2-0.3,0.4c-0.2,0.2-0.3,0.4-0.5,0.5c0,0,0,0,0,0c-3.3,3.2-7.9,3.3-10.8,3.3c-0.2,0-0.7,0-1.2,0
		c-1.2-0.1-2.9-0.2-4.9-0.9c-1-0.3-2.5-0.8-4.2-1.9c-0.4-0.2-1.3-0.8-2.2-1.8c-1.5-1.4-2.9-2.8-2.8-4.6c0-0.4,0.2-1.1,0.7-1.8
		c-1-0.1-3.3-0.3-5.4-0.1c-0.7,0.1-1.3,0.2-2,0.4h0c-0.1,0-0.2,0.1-0.3,0.1c-0.5,0.1-1,0.4-1.6,0.7c0,0-1.2,0.7-2,1.9
		c-1.5,2.4-0.1,6.3,1.3,8.5c0.4,0.7,1.7,2.5,4.9,4.6c4.8,3.1,9.5,3.8,13.2,4.3c2.4,0.3,4.6,0.4,6.5,0.4c1.5,0,2.9-0.1,4.1-0.2
		c0.1,0,0.2,0,0.4,0c0.3,0,0.6-0.1,1-0.1c0.5,0,0.9-0.1,1.4-0.1c0.3,0,0.6-0.1,1-0.1c0.2,0,0.4-0.1,0.7-0.1c0.5-0.1,1.1-0.1,1.6-0.3
		c0.1,0,0.3,0,0.4-0.1c1.9-0.4,4.1-1.1,6.3-2.2c0.1-0.1,0.2-0.1,0.4-0.2c3.6-1.9,7-4.9,8.7-9.7c0,0,0,0,0,0c0.8-2,1.1-4,1.2-5.7
		v-0.6c0-0.3,0-0.6,0-0.8C225.6,133.2,225.6,132.9,225.6,132.7z"/>
</g>
</svg>
